#!OML:ASF E:\acrobat2\Project_11_07_03\Capture day 1\Session 1\Acrobat.ASF
:FULLY-SPECIFIED
:DEGREES
1149
root 6.76305 27.8773 -28.2602 7.36053 8.13739 -5.17707
lowerback 3.98744 1.41627 -0.430844
upperback 2.74843 1.87625 -1.19163
thorax 0.611636 0.94329 -1.04263
lowerneck 3.86486 -1.67562 -2.67882
upperneck -10.8375 -1.59614 8.20901
head -3.76004 -1.07948 3.01477
rclavicle 1.59028e-015 1.43125e-014
rhumerus -48.7045 1.36004 -83.7192
rradius 45.1193
rwrist -6.34663
rhand -0.137962 -18.1709
rfingers 7.12502
rthumb 25.4582 -46.4906
lclavicle 1.59028e-015 1.43125e-014
lhumerus -25.1378 23.2542 65.8041
lradius 63.5645
lwrist 61.9203
lhand -32.2581 -5.78127
lfingers 7.12502
lthumb -5.49793 24.1274
rfemur -14.5242 -6.45398 28.755
rtibia 24.1028
rfoot -17.0857 -11.2029
rtoes -14.9354
lfemur -26.8862 -2.99983 -7.20837
ltibia 48.0979
lfoot -4.9236 -14.5675
ltoes 27.4036
1150
root 6.77873 27.9046 -28.2819 7.42357 8.06292 -5.25557
lowerback 3.90491 1.49636 -0.396148
upperback 2.70127 1.98416 -1.20572
thorax 0.612578 0.997656 -1.07842
lowerneck 3.79123 -1.71404 -2.65456
upperneck -10.8517 -1.63886 8.26456
head -3.7491 -1.10285 3.02877
rclavicle -1.82882e-014 1.43125e-014
rhumerus -48.5478 1.58533 -84.1805
rradius 44.7868
rwrist -4.46799
rhand 0.665886 -17.6892
rfingers 7.12502
rthumb 26.228 -45.8967
lclavicle -1.82882e-014 1.43125e-014
lhumerus -25.3752 23.1356 65.6213
lradius 63.6265
lwrist 62.1208
lhand -32.3331 -5.73871
lfingers 7.12502
lthumb -5.57037 24.1681
rfemur -13.9932 -6.32188 28.6781
rtibia 23.3553
rfoot -17.0138 -11.2721
rtoes -15.8951
lfemur -26.8855 -2.89984 -7.39575
ltibia 46.5418
lfoot -4.45081 -14.7675
ltoes 28.5908
1151
root 6.79726 27.9291 -28.3023 7.48432 7.92981 -5.36865
lowerback 3.78596 1.57983 -0.326
upperback 2.65979 2.09802 -1.20686
thorax 0.64073 1.05537 -1.11952
lowerneck 3.73172 -1.73606 -2.62886
upperneck -10.869 -1.66078 8.3047
head -3.74287 -1.11559 3.0372
rclavicle 3.53837e-014 -3.18055e-015
rhumerus -48.423 1.82064 -84.6204
rradius 44.5784
rwrist -2.77363
rhand 1.2187 -17.1829
rfingers 7.12502
rthumb 26.7571 -45.3106
lclavicle 3.53837e-014 -3.18055e-015
lhumerus -25.6429 23.0529 65.4258
lradius 63.6955
lwrist 62.3033
lhand -32.4132 -5.71028
lfingers 7.12502
lthumb -5.64765 24.1945
rfemur -13.5266 -6.18484 28.6014
rtibia 22.6954
rfoot -16.8982 -11.2851
rtoes -16.7391
lfemur -26.764 -2.73415 -7.59349
ltibia 44.8106
lfoot -3.34528 -15.0463
ltoes 31.1773
1152
root 6.81749 27.9506 -28.323 7.537 7.78025 -5.50283
lowerback 3.6639 1.65044 -0.239593
upperback 2.62134 2.19513 -1.19226
thorax 0.67371 1.10481 -1.15259
lowerneck 3.70054 -1.7402 -2.60424
upperneck -10.9027 -1.65942 8.3291
head -3.74782 -1.11691 3.04068
rclavicle -3.65764e-014 2.3059e-014
rhumerus -48.3303 2.09174 -85.0481
rradius 44.5006
rwrist -1.31579
rhand 1.53471 -16.6912
rfingers 7.12502
rthumb 27.0595 -44.7723
lclavicle -3.65764e-014 2.3059e-014
lhumerus -25.9573 23.0123 65.2163
lradius 63.7856
lwrist 62.4685
lhand -32.4826 -5.70147
lfingers 7.12502
lthumb -5.7147 24.2015
rfemur -13.1279 -6.07294 28.5167
rtibia 22.1358
rfoot -16.7637 -11.2558
rtoes -17.4619
lfemur -26.5425 -2.51302 -7.81263
ltibia 42.9545
lfoot -1.70486 -15.2868
ltoes 34.4054
1153
root 6.83966 27.9683 -28.3433 7.5687 7.59423 -5.65329
lowerback 3.54735 1.71304 -0.142299
upperback 2.59082 2.28166 -1.16363
thorax 0.711644 1.14902 -1.17682
lowerneck 3.67268 -1.72596 -2.58803
upperneck -10.9379 -1.63535 8.33818
head -3.75519 -1.10605 3.04004
rclavicle 5.20816e-014 9.54166e-015
rhumerus -48.2552 2.41684 -85.4677
rradius 44.5358
rwrist -0.121323
rhand 1.66848 -16.2284
rfingers 7.12502
rthumb 27.1875 -44.2896
lclavicle 5.20816e-014 9.54166e-015
lhumerus -26.3325 23.0096 64.9908
lradius 63.9148
lwrist 62.6133
lhand -32.5222 -5.70127
lfingers 7.12502
lthumb -5.75295 24.2006
rfemur -12.7862 -5.98767 28.414
rtibia 21.6932
rfoot -16.6064 -11.1677
rtoes -18.1919
lfemur -26.1943 -2.22976 -8.05678
ltibia 40.9868
lfoot 0.24642 -15.3547
ltoes 37.3745
1154
root 6.86326 27.9816 -28.3634 7.58065 7.37067 -5.80983
lowerback 3.43062 1.77123 -0.053185
upperback 2.57529 2.362 -1.12223
thorax 0.764275 1.19002 -1.18265
lowerneck 3.62148 -1.69616 -2.56538
upperneck -10.9683 -1.59337 8.31383
head -3.75862 -1.08442 3.02698
rclavicle 1.82882e-014 1.74931e-014
rhumerus -48.176 2.77628 -85.8649
rradius 44.6683
rwrist 0.83727
rhand 1.7057 -15.8125
rfingers 7.12502
rthumb 27.2231 -43.8682
lclavicle 1.82882e-014 1.74931e-014
lhumerus -26.7511 23.0334 64.7584
lradius 64.0834
lwrist 62.7357
lhand -32.5257 -5.6991
lfingers 7.12502
lthumb -5.75633 24.2027
rfemur -12.5115 -5.94055 28.2822
rtibia 21.3867
rfoot -16.4341 -11.0094
rtoes -18.9868
lfemur -25.7212 -1.9017 -8.32793
ltibia 38.92
lfoot 2.34484 -15.1519
ltoes 39.9825
